<svg width="430" height="520" viewBox="0 0 430 520" xmlns="http://www.w3.org/2000/svg">
  <!-- Background -->
  <rect width="430" height="520" fill="#0C3934"/>

  <!-- Depth circles -->
  <circle cx="170" cy="230" r="200" fill="#0A302C" opacity="0.45"/>
  <circle cx="390" cy="460" r="110" fill="#0F4540" opacity="0.4"/>
  <circle cx="390" cy="80"  r="70"  fill="#0F4540" opacity="0.3"/>

  <!-- Dot grid top-right -->
  <circle cx="356" cy="30" r="3" fill="#FFFFFF" opacity="0.1"/>
  <circle cx="378" cy="30" r="3" fill="#FFFFFF" opacity="0.1"/>
  <circle cx="400" cy="30" r="3" fill="#FFFFFF" opacity="0.1"/>
  <circle cx="356" cy="52" r="3" fill="#FFFFFF" opacity="0.1"/>
  <circle cx="378" cy="52" r="3" fill="#FFFFFF" opacity="0.1"/>
  <circle cx="400" cy="52" r="3" fill="#FFFFFF" opacity="0.1"/>

  <!-- Dot grid bottom-left -->
  <circle cx="30"  cy="460" r="3" fill="#FFFFFF" opacity="0.1"/>
  <circle cx="52"  cy="460" r="3" fill="#FFFFFF" opacity="0.1"/>
  <circle cx="74"  cy="460" r="3" fill="#FFFFFF" opacity="0.1"/>
  <circle cx="30"  cy="482" r="3" fill="#FFFFFF" opacity="0.1"/>
  <circle cx="52"  cy="482" r="3" fill="#FFFFFF" opacity="0.1"/>
  <circle cx="74"  cy="482" r="3" fill="#FFFFFF" opacity="0.1"/>
  <circle cx="30"  cy="504" r="3" fill="#FFFFFF" opacity="0.1"/>
  <circle cx="52"  cy="504" r="3" fill="#FFFFFF" opacity="0.1"/>
  <circle cx="74"  cy="504" r="3" fill="#FFFFFF" opacity="0.1"/>

  <!-- Donut chart segments -->
  <path d="M170,240 L170,80  A160,160 0 0,1 308,160 Z" fill="#C4E0BE" opacity="0.92"/>
  <path d="M170,240 L308,160 A160,160 0 0,1 308,320 Z" fill="#F5C8CF" opacity="0.92"/>
  <path d="M170,240 L308,320 A160,160 0 0,1 132,392 Z" fill="#FFFFFF"  opacity="0.82"/>
  <path d="M170,240 L132,392 A160,160 0 0,1 32,160  Z" fill="#DEF0F4" opacity="0.78"/>
  <path d="M170,240 L32,160  A160,160 0 0,1 170,80  Z" fill="#C4E0BE" opacity="0.48"/>

  <!-- Donut hole -->
  <circle cx="170" cy="240" r="94" fill="#0C3934"/>

  <!-- Centre labels -->
  <text x="170" y="228" font-family="sans-serif" font-size="13" fill="#FFFFFF" opacity="0.55" text-anchor="middle">Portfolio</text>
  <text x="170" y="252" font-family="sans-serif" font-size="24" font-weight="700" fill="#FFFFFF" text-anchor="middle">₦12M</text>
  <text x="170" y="270" font-family="sans-serif" font-size="12" fill="#C4E0BE" text-anchor="middle">+24.1% YTD</text>

  <!-- Asset cards (right column) -->
  <!-- Card 1 -->
  <rect x="258" y="60"  width="152" height="60" rx="11" fill="#FFFFFF" opacity="0.08"/>
  <rect x="258" y="60"  width="152" height="60" rx="11" fill="none" stroke="#FFFFFF" stroke-width="0.8" opacity="0.14"/>
  <rect x="272" y="74"  width="8" height="32" rx="3" fill="#C4E0BE"/>
  <text x="288" y="90"  font-family="sans-serif" font-size="11" fill="#FFFFFF" opacity="0.85">Equities</text>
  <text x="288" y="109" font-family="sans-serif" font-size="17" font-weight="700" fill="#FFFFFF">35%</text>
  <text x="400" y="90"  font-family="sans-serif" font-size="10" fill="#C4E0BE" text-anchor="end">↑ 31.2%</text>

  <!-- Card 2 -->
  <rect x="258" y="132" width="152" height="60" rx="11" fill="#FFFFFF" opacity="0.08"/>
  <rect x="258" y="132" width="152" height="60" rx="11" fill="none" stroke="#FFFFFF" stroke-width="0.8" opacity="0.14"/>
  <rect x="272" y="146" width="8" height="32" rx="3" fill="#F5C8CF"/>
  <text x="288" y="162" font-family="sans-serif" font-size="11" fill="#FFFFFF" opacity="0.85">Fixed Income</text>
  <text x="288" y="181" font-family="sans-serif" font-size="17" font-weight="700" fill="#FFFFFF">25%</text>
  <text x="400" y="162" font-family="sans-serif" font-size="10" fill="#C4E0BE" text-anchor="end">↑ 14.8%</text>

  <!-- Card 3 -->
  <rect x="258" y="204" width="152" height="60" rx="11" fill="#FFFFFF" opacity="0.08"/>
  <rect x="258" y="204" width="152" height="60" rx="11" fill="none" stroke="#FFFFFF" stroke-width="0.8" opacity="0.14"/>
  <rect x="272" y="218" width="8" height="32" rx="3" fill="#FFFFFF" opacity="0.65"/>
  <text x="288" y="234" font-family="sans-serif" font-size="11" fill="#FFFFFF" opacity="0.85">Real Estate</text>
  <text x="288" y="253" font-family="sans-serif" font-size="17" font-weight="700" fill="#FFFFFF">20%</text>
  <text x="400" y="234" font-family="sans-serif" font-size="10" fill="#C4E0BE" text-anchor="end">↑ 9.3%</text>

  <!-- Card 4 -->
  <rect x="258" y="276" width="152" height="60" rx="11" fill="#FFFFFF" opacity="0.08"/>
  <rect x="258" y="276" width="152" height="60" rx="11" fill="none" stroke="#FFFFFF" stroke-width="0.8" opacity="0.14"/>
  <rect x="272" y="290" width="8" height="32" rx="3" fill="#DEF0F4"/>
  <text x="288" y="306" font-family="sans-serif" font-size="11" fill="#FFFFFF" opacity="0.85">Money Market</text>
  <text x="288" y="325" font-family="sans-serif" font-size="17" font-weight="700" fill="#FFFFFF">20%</text>
  <text x="400" y="306" font-family="sans-serif" font-size="10" fill="#C4E0BE" text-anchor="end">↑ 7.1%</text>

  <!-- Bottom decorative pill -->
  <rect x="100" y="458" width="230" height="38" rx="19" fill="#C4E0BE" opacity="0.12"/>
  <rect x="100" y="458" width="230" height="38" rx="19" fill="none" stroke="#C4E0BE" stroke-width="1" opacity="0.25"/>
  <text x="215" y="482" font-family="sans-serif" font-size="12" fill="#C4E0BE" text-anchor="middle">Diversified across 4 asset classes</text>
</svg>
