<svg width="430" height="520" viewBox="0 0 430 520" xmlns="http://www.w3.org/2000/svg">
  <!-- Background -->
  <rect width="430" height="520" fill="#0C3934"/>

  <!-- Background depth circles -->
  <circle cx="380" cy="80" r="140" fill="#0F4540" opacity="0.5"/>
  <circle cx="50" cy="440" r="100" fill="#0F4540" opacity="0.4"/>
  <circle cx="215" cy="260" r="220" fill="#0A302C" opacity="0.35"/>

  <!-- Dot grid top-left -->
  <circle cx="30" cy="40" r="3" fill="#FFFFFF" opacity="0.12"/>
  <circle cx="52" cy="40" r="3" fill="#FFFFFF" opacity="0.12"/>
  <circle cx="74" cy="40" r="3" fill="#FFFFFF" opacity="0.12"/>
  <circle cx="30" cy="62" r="3" fill="#FFFFFF" opacity="0.12"/>
  <circle cx="52" cy="62" r="3" fill="#FFFFFF" opacity="0.12"/>
  <circle cx="74" cy="62" r="3" fill="#FFFFFF" opacity="0.12"/>
  <circle cx="30" cy="84" r="3" fill="#FFFFFF" opacity="0.12"/>
  <circle cx="52" cy="84" r="3" fill="#FFFFFF" opacity="0.12"/>
  <circle cx="74" cy="84" r="3" fill="#FFFFFF" opacity="0.12"/>

  <!-- Dot grid bottom-right -->
  <circle cx="356" cy="456" r="3" fill="#FFFFFF" opacity="0.1"/>
  <circle cx="378" cy="456" r="3" fill="#FFFFFF" opacity="0.1"/>
  <circle cx="400" cy="456" r="3" fill="#FFFFFF" opacity="0.1"/>
  <circle cx="356" cy="478" r="3" fill="#FFFFFF" opacity="0.1"/>
  <circle cx="378" cy="478" r="3" fill="#FFFFFF" opacity="0.1"/>
  <circle cx="400" cy="478" r="3" fill="#FFFFFF" opacity="0.1"/>
  <circle cx="356" cy="500" r="3" fill="#FFFFFF" opacity="0.1"/>
  <circle cx="378" cy="500" r="3" fill="#FFFFFF" opacity="0.1"/>
  <circle cx="400" cy="500" r="3" fill="#FFFFFF" opacity="0.1"/>

  <!-- Grid lines -->
  <line x1="40" y1="160" x2="390" y2="160" stroke="#1A5A52" stroke-width="0.8"/>
  <line x1="40" y1="230" x2="390" y2="230" stroke="#1A5A52" stroke-width="0.8"/>
  <line x1="40" y1="300" x2="390" y2="300" stroke="#1A5A52" stroke-width="0.8"/>
  <line x1="40" y1="370" x2="390" y2="370" stroke="#1A5A52" stroke-width="0.8"/>
  <line x1="40" y1="440" x2="390" y2="440" stroke="#1A5A52" stroke-width="1.2"/>

  <!-- Bars -->
  <rect x="52"  y="400" width="38" height="40"  rx="6" fill="#C4E0BE"/>
  <rect x="108" y="358" width="38" height="82"  rx="6" fill="#C4E0BE"/>
  <rect x="164" y="306" width="38" height="134" rx="6" fill="#F5C8CF"/>
  <rect x="220" y="255" width="38" height="185" rx="6" fill="#F5C8CF"/>
  <rect x="276" y="198" width="38" height="242" rx="6" fill="#C4E0BE"/>
  <rect x="332" y="148" width="38" height="292" rx="6" fill="#FFFFFF" opacity="0.88"/>

  <!-- Trend line -->
  <polyline
    points="71,394 127,352 183,299 239,248 295,192 351,142"
    fill="none" stroke="#F5C8CF" stroke-width="3"
    stroke-linecap="round" stroke-linejoin="round"/>

  <!-- Trend dots -->
  <circle cx="71"  cy="394" r="5" fill="#F5C8CF"/>
  <circle cx="127" cy="352" r="5" fill="#F5C8CF"/>
  <circle cx="183" cy="299" r="5" fill="#F5C8CF"/>
  <circle cx="239" cy="248" r="5" fill="#F5C8CF"/>
  <circle cx="295" cy="192" r="5" fill="#F5C8CF"/>
  <circle cx="351" cy="142" r="7" fill="#F5C8CF" stroke="#0C3934" stroke-width="2"/>

  <!-- Portfolio value card -->
  <rect x="30" y="60" width="160" height="76" rx="12" fill="#FFFFFF" opacity="0.09"/>
  <rect x="30" y="60" width="160" height="76" rx="12" fill="none" stroke="#FFFFFF" stroke-width="1" opacity="0.18"/>
  <text x="46" y="86"  font-family="sans-serif" font-size="11" fill="#C4E0BE">Portfolio value</text>
  <text x="46" y="112" font-family="sans-serif" font-size="22" font-weight="700" fill="#FFFFFF">₦4.2M</text>
  <text x="46" y="128" font-family="sans-serif" font-size="10" fill="#C4E0BE">↑ 18.4% this month</text>

  <!-- Beige Club pill -->
  <rect x="110" y="460" width="210" height="38" rx="19" fill="#F5C8CF" opacity="0.14"/>
  <rect x="110" y="460" width="210" height="38" rx="19" fill="none" stroke="#F5C8CF" stroke-width="1" opacity="0.28"/>
  <circle cx="134" cy="479" r="9" fill="#F5C8CF" opacity="0.55"/>
  <text x="150" y="483" font-family="sans-serif" font-size="12" fill="#F5C8CF">Beige Club member</text>
</svg>
